<svg width="36" height="36" viewBox="0 0 36 36" fill="none" xmlns="http://www.w3.org/2000/svg">
<path fill-rule="evenodd" clip-rule="evenodd" d="M24.75 16.875H12.8408L17.4769 12.2389C17.9168 11.799 17.9168 11.0869 17.4769 10.6482C17.0381 10.2083 16.326 10.2083 15.8861 10.6482L9.52312 17.0111C9.25312 17.2811 9.16873 17.6501 9.23061 18C9.16873 18.3499 9.25312 18.7189 9.52312 18.9889L15.8861 25.3575C16.326 25.7962 17.0381 25.7962 17.4769 25.3575C17.9168 24.9187 17.9168 24.1987 17.4769 23.76L12.8408 19.125H24.75C25.3721 19.125 25.875 18.6221 25.875 18C25.875 17.379 25.3721 16.875 24.75 16.875ZM33.75 31.5C33.75 32.7375 32.742 33.75 31.5 33.75H4.5C3.258 33.75 2.25 32.7375 2.25 31.5V4.5C2.25 3.258 3.258 2.25 4.5 2.25H31.5C32.742 2.25 33.75 3.258 33.75 4.5V31.5ZM31.5 0H4.5C2.01487 0 0 2.01487 0 4.5V31.5C0 33.9863 2.01487 36 4.5 36H31.5C33.9851 36 36 33.9863 36 31.5V4.5C36 2.01487 33.9851 0 31.5 0Z" fill="white"/>
</svg>
