<svg width="36" height="37" viewBox="0 0 36 37" fill="none" xmlns="http://www.w3.org/2000/svg">
<path fill-rule="evenodd" clip-rule="evenodd" d="M33.75 31.8745C33.75 33.112 32.742 34.1245 31.5 34.1245H4.5C3.258 34.1245 2.25 33.112 2.25 31.8745V4.87451C2.25 3.63251 3.258 2.62451 4.5 2.62451H31.5C32.742 2.62451 33.75 3.63251 33.75 4.87451V31.8745ZM31.5 0.374512H4.5C2.01487 0.374512 0 2.38939 0 4.87451V31.8745C0 34.3608 2.01487 36.3745 4.5 36.3745H31.5C33.9851 36.3745 36 34.3608 36 31.8745V4.87451C36 2.38939 33.9851 0.374512 31.5 0.374512ZM26.4769 17.3856L20.1139 11.0227C19.674 10.5828 18.9619 10.5828 18.5231 11.0227C18.0832 11.4603 18.0832 12.1735 18.5231 12.6134L23.1592 17.2495H11.25C10.6279 17.2495 10.125 17.7524 10.125 18.3745C10.125 18.9955 10.6279 19.4995 11.25 19.4995H23.1592L18.5231 24.1345C18.0832 24.5733 18.0832 25.282 18.5231 25.732C18.9619 26.1707 19.674 26.1707 20.1139 25.732L26.4769 19.3634C26.7469 19.0934 26.8313 18.7244 26.7694 18.3745C26.8313 18.0246 26.7469 17.6556 26.4769 17.3856Z" fill="white"/>
</svg>
