<svg width="30" height="31" viewBox="0 0 30 31" fill="none" xmlns="http://www.w3.org/2000/svg">
<path d="M10.9146 13.029L13.5824 11.2514C14.1461 10.8755 14.5632 10.3172 14.7641 9.67017C14.9649 9.02313 14.9371 8.32672 14.6853 7.69775L12.549 2.35614C12.3297 1.80825 11.9514 1.33863 11.4627 1.00783C10.974 0.677044 10.3974 0.500266 9.8073 0.500305H3.10149L0.277141 2.88764C-0.224834 6.19773 -0.905454 15.9744 6.81021 23.6901C14.5259 31.4058 24.3026 30.7237 27.6127 30.2232L30 27.3988V20.944C30.0001 20.245 29.7522 19.5687 29.3005 19.0353C28.8487 18.5019 28.2224 18.146 27.5329 18.0311L20.9836 16.94C20.3607 16.836 19.7209 16.9345 19.1581 17.221C18.5953 17.5074 18.1391 17.9668 17.8566 18.5316L17.3458 19.5547C17.1651 19.5102 16.9864 19.4585 16.8099 19.3997C15.8945 19.0955 14.6233 18.4696 13.327 17.1733C12.0308 15.877 11.4048 14.6058 11.1006 13.689C11.028 13.4722 10.9664 13.252 10.9161 13.029H10.9146Z" fill="#B62232"/>
</svg>
