<svg width="65" height="53" viewBox="0 0 65 53" fill="none" xmlns="http://www.w3.org/2000/svg">
<path d="M29.3727 40.2306C29.3727 36.9898 28.4787 34.2333 26.6907 31.961C23.9714 28.5339 18.719 28.1242 15.6645 28.7947C14.398 21.6053 20.5071 12.4417 28.4042 8.49313L22.3323 0C10.4122 5.66209 -1.28452 18.6998 0.727015 35.1273C1.99353 45.5202 7.99088 52.3743 16.484 52.3743C20.2091 52.3743 23.3009 51.294 25.7222 49.0963C28.1807 46.8985 29.3727 43.9557 29.3727 40.2306ZM64.5 40.2306C64.5 36.9898 63.606 34.2333 61.818 31.961C59.0987 28.5339 53.8463 28.1242 50.7918 28.7947C49.5253 21.6053 55.6344 12.4417 63.5315 8.49313L57.4596 0C45.5395 5.66209 33.8428 18.6998 35.8543 35.1273C37.1208 45.5202 43.1182 52.3743 51.6113 52.3743C55.3364 52.3743 58.4282 51.294 60.8494 49.0963C63.308 46.8985 64.5 43.9557 64.5 40.2306Z" fill="#B62232"/>
</svg>
